inDegrees=yes
name=ik_S53_A04_T01
DataType=double
version=3
OpenSimVersion=4.3-2021-08-27-4bc7ad9
endheader
time	pelvis_tilt	pelvis_list	pelvis_rotation	pelvis_tx	pelvis_ty	pelvis_tz	hip_flexion_r	hip_adduction_r	hip_rotation_r	knee_angle_r	knee_angle_r_beta	ankle_angle_r	subtalar_angle_r	mtp_angle_r	hip_flexion_l	hip_adduction_l	hip_rotation_l	knee_angle_l	knee_angle_l_beta	ankle_angle_l	subtalar_angle_l	mtp_angle_l	lumbar_extension	lumbar_bending	lumbar_rotation	arm_flex_r	arm_add_r	arm_rot_r	elbow_flex_r	pro_sup_r	wrist_flex_r	wrist_dev_r	arm_flex_l	arm_add_l	arm_rot_l	elbow_flex_l	pro_sup_l	wrist_flex_l	wrist_dev_l
20.07999999999966	-6.567873081434096	-3.415077850689038	21.20558375092917	0	0.9399999999999999	0	53.2822570630788	-13.55973767654901	-1.304321271659548	57.55487566081094	1.004522080857098	0	0	0	52.95631797986679	-16.39277936724102	1.166732385974967	55.87372412561454	0.9751804513429636	0	0	0	0	0	0	33.76633099390092	-33.76633099390086	4.598131401425123	79.87886609948296	85.40186885520296	0	0	33.76633099390092	-33.76633099390086	4.598131401425123	79.87886609948296	85.401868855131	0	0
20.09999999999966	-5.926675688752802	-3.167384574391822	21.01229920794684	0	0.9399999999999999	0	52.63972788861448	-13.36307569610451	-1.172877293643009	57.43568348130768	1.002441784882138	0	0	0	53.32984351057294	-16.52441890266456	1.715126956539534	56.85276208728078	0.9922678872760534	0	0	0	0	0	0	33.76906955425576	-33.7690695542557	4.598327306327563	79.88136974340668	85.40167295031006	0	0	33.76906955425576	-33.7690695542557	4.598327306327563	79.88136974340668	85.40167295023815	0	0
20.11999999999966	-5.567297911000831	-3.047893076519872	20.89136550344539	0	0.9399999999999999	0	52.27863149773643	-13.19916181426459	-1.107042097583296	57.34758435722892	1.000904165098841	0	0	0	53.9664556321039	-16.58560101834173	2.362673346918016	57.71645789710742	1.007342222893207	0	0	0	0	0	0	33.77117630057361	-33.77117630057355	4.598477880961319	79.88329405348206	85.40152237568363	0	0	33.77117630057361	-33.77117630057355	4.598477880961319	79.88329405348206	85.40152237561178	0	0
20.13999999999966	-4.284323601765315	-2.517238806343554	20.46242189425046	0	0.9399999999999999	0	50.9766908318722	-12.82067524323133	-0.7530357136663041	57.21616718431311	0.9986105027377969	0	0	0	53.5743798678746	-16.82777837853214	2.846561963552232	58.70063180436522	1.024519297987073	0	0	0	0	0	0	33.77413555878658	-33.77413555878651	4.598689458503182	79.88599796881044	85.40131079815208	0	0	33.77413555878658	-33.77413555878651	4.598689458503182	79.88599796881044	85.40131079808026	0	0
20.15999999999966	-3.320304354345772	-2.111752789401062	20.23715760311267	0	0.9399999999999999	0	53.44113164442134	-12.79805655900726	1.444435031043875	60.36507951348867	1.053569390738554	0	0	0	53.50449527551621	-16.97919688610993	3.451201728663041	59.63547244105484	1.040835345078747	0	0	0	0	0	0	33.83910461059284	-33.83910461059278	4.602625888177551	79.93622884020796	85.39737436866429	0	0	33.83910461059284	-33.83910461059278	4.602625888177551	79.93622884020796	85.39737436859311	0	0
20.17999999999966	-2.251049010603074	-1.660315757213639	20.0306385827534	0	0.9399999999999999	0	54.48896399199107	-12.23247245428612	2.694427875977074	62.23436151020294	1.086194516229472	0	0	0	53.31334316479187	-17.22271261822747	4.237743428260999	60.49855105678213	1.055898908626743	0	0	0	0	0	0	33.88429019711391	-33.88429019711386	4.605362833590624	79.97115348979932	85.39463742338087	0	0	33.88429019711391	-33.88429019711386	4.605362833590624	79.97115348979932	85.39463742331023	0	0
20.19999999999966	-1.696935952861274	-1.436098600053035	19.94572250386827	0	0.9399999999999999	0	54.97200217555523	-12.13596358117088	3.474850916512965	63.08641421575116	1.101065641341814	0	0	0	53.67943937192393	-17.14322043696245	5.208999891529435	61.32123499535444	1.070257452058105	0	0	0	0	0	0	33.88644922591828	-33.88644922591822	4.605515852033695	79.97310876758452	85.39448440494525	0	0	33.88644922591828	-33.88644922591822	4.605515852033695	79.97310876758452	85.39448440487462	0	0
20.21999999999966	-0.569353603328049	-0.9466972298379032	19.75574201565403	0	0.9399999999999999	0	54.8821658386852	-11.92972590236491	4.401523387212912	63.96600534415058	1.116417402603716	0	0	0	53.32476641938263	-16.95879350184665	5.921029406245912	62.09363928455628	1.083738450061203	0	0	0	0	0	0	33.89026189400464	-33.89026189400459	4.605786273221769	79.97656423167399	85.39421398377029	0	0	33.89026189400464	-33.89026189400459	4.605786273221769	79.97656423167399	85.39421398369973	0	0
20.23999999999966	0.6428911179324575	-0.4161975471762515	19.62523913098235	0	0.9399999999999999	0	54.52966424600562	-11.78132610413829	5.141963781202494	64.67324426114696	1.128761050303542	0	0	0	52.72871439832987	-16.9076849694937	6.399856906838369	62.74170482299989	1.095049327475754	0	0	0	0	0	0	33.8936929170159	-33.89369291701584	4.606029701799666	79.97967478614949	85.39397055520422	0	0	33.8936929170159	-33.89369291701584	4.606029701799666	79.97967478614949	85.39397055513371	0	0
20.25999999999966	2.707398661010459	0.3952576150190893	19.41762108971848	0	0.9399999999999999	0	53.0548327045402	-11.68325978122639	5.683621455538694	65.14169049923696	1.136936979526794	0	0	0	51.29391269800504	-17.09559162481726	6.59437299898818	63.34890394773934	1.105646951417685	0	0	0	0	0	0	33.96639327221585	-33.96639327221583	4.610411354862451	80.03558390181546	85.38958890234882	0	0	33.96639327221585	-33.96639327221583	4.610411354862451	80.03558390181546	85.38958890227909	0	0
